<svg width="179" height="32" viewBox="0 0 179 32" fill="none" xmlns="http://www.w3.org/2000/svg">
<g clip-path="url(#clip0_0_41)">
<path d="M34.0248 23L33.1248 20.012H28.9308L28.0308 23H25.2588L29.3988 10.436H32.7828L36.8688 23H34.0248ZM31.0548 12.92H30.9648L29.5788 17.69H32.4588L31.0548 12.92ZM38.2831 23V13.55H40.9471V15.152H41.0551C41.2231 14.66 41.5171 14.234 41.9371 13.874C42.3571 13.514 42.9391 13.334 43.6831 13.334C44.6551 13.334 45.3871 13.658 45.8791 14.306C46.3831 14.954 46.6351 15.878 46.6351 17.078V23H43.9711V17.294C43.9711 16.682 43.8751 16.232 43.6831 15.944C43.4911 15.644 43.1491 15.494 42.6571 15.494C42.4411 15.494 42.2311 15.524 42.0271 15.584C41.8231 15.632 41.6371 15.716 41.4691 15.836C41.3131 15.956 41.1871 16.106 41.0911 16.286C40.9951 16.454 40.9471 16.652 40.9471 16.88V23H38.2831ZM54.6217 21.416H54.5317C54.4597 21.668 54.3457 21.908 54.1897 22.136C54.0337 22.352 53.8417 22.544 53.6137 22.712C53.3977 22.868 53.1457 22.988 52.8577 23.072C52.5817 23.168 52.2937 23.216 51.9937 23.216C50.7937 23.216 49.8877 22.796 49.2757 21.956C48.6637 21.104 48.3577 19.874 48.3577 18.266C48.3577 16.658 48.6637 15.434 49.2757 14.594C49.8877 13.754 50.7937 13.334 51.9937 13.334C52.6057 13.334 53.1457 13.502 53.6137 13.838C54.0937 14.174 54.3997 14.606 54.5317 15.134H54.6217V9.68H57.2857V23H54.6217V21.416ZM52.8757 21.056C53.3797 21.056 53.7937 20.936 54.1177 20.696C54.4537 20.444 54.6217 20.102 54.6217 19.67V16.88C54.6217 16.448 54.4537 16.112 54.1177 15.872C53.7937 15.62 53.3797 15.494 52.8757 15.494C52.3717 15.494 51.9517 15.674 51.6157 16.034C51.2917 16.382 51.1297 16.856 51.1297 17.456V19.094C51.1297 19.694 51.2917 20.174 51.6157 20.534C51.9517 20.882 52.3717 21.056 52.8757 21.056ZM59.5969 23V13.55H62.2609V15.602H62.3509C62.3989 15.338 62.4829 15.086 62.6029 14.846C62.7229 14.594 62.8789 14.372 63.0709 14.18C63.2749 13.988 63.5149 13.838 63.7909 13.73C64.0669 13.61 64.3909 13.55 64.7629 13.55H65.2309V16.034H64.5649C63.7849 16.034 63.2029 16.136 62.8189 16.34C62.4469 16.544 62.2609 16.922 62.2609 17.474V23H59.5969ZM70.4404 23.216C69.7444 23.216 69.1204 23.102 68.5684 22.874C68.0284 22.646 67.5664 22.316 67.1824 21.884C66.8104 21.452 66.5224 20.93 66.3184 20.318C66.1144 19.706 66.0124 19.022 66.0124 18.266C66.0124 17.51 66.1144 16.826 66.3184 16.214C66.5224 15.602 66.8104 15.086 67.1824 14.666C67.5664 14.234 68.0284 13.904 68.5684 13.676C69.1204 13.448 69.7444 13.334 70.4404 13.334C71.1364 13.334 71.7544 13.448 72.2944 13.676C72.8464 13.904 73.3084 14.234 73.6804 14.666C74.0644 15.086 74.3584 15.602 74.5624 16.214C74.7664 16.826 74.8684 17.51 74.8684 18.266C74.8684 19.022 74.7664 19.706 74.5624 20.318C74.3584 20.93 74.0644 21.452 73.6804 21.884C73.3084 22.316 72.8464 22.646 72.2944 22.874C71.7544 23.102 71.1364 23.216 70.4404 23.216ZM70.4404 21.11C70.9684 21.11 71.3764 20.948 71.6644 20.624C71.9524 20.3 72.0964 19.838 72.0964 19.238V17.312C72.0964 16.712 71.9524 16.25 71.6644 15.926C71.3764 15.602 70.9684 15.44 70.4404 15.44C69.9124 15.44 69.5044 15.602 69.2164 15.926C68.9284 16.25 68.7844 16.712 68.7844 17.312V19.238C68.7844 19.838 68.9284 20.3 69.2164 20.624C69.5044 20.948 69.9124 21.11 70.4404 21.11ZM77.9185 12.542C77.3785 12.542 76.9825 12.422 76.7305 12.182C76.4905 11.93 76.3705 11.612 76.3705 11.228V10.832C76.3705 10.448 76.4905 10.136 76.7305 9.896C76.9825 9.644 77.3785 9.518 77.9185 9.518C78.4585 9.518 78.8485 9.644 79.0885 9.896C79.3405 10.136 79.4665 10.448 79.4665 10.832V11.228C79.4665 11.612 79.3405 11.93 79.0885 12.182C78.8485 12.422 78.4585 12.542 77.9185 12.542ZM76.5865 13.55H79.2505V23H76.5865V13.55ZM87.3529 21.416H87.2629C87.1909 21.668 87.0769 21.908 86.9209 22.136C86.7649 22.352 86.5729 22.544 86.3449 22.712C86.1289 22.868 85.8769 22.988 85.5889 23.072C85.3129 23.168 85.0249 23.216 84.7249 23.216C83.5249 23.216 82.6189 22.796 82.0069 21.956C81.3949 21.104 81.0889 19.874 81.0889 18.266C81.0889 16.658 81.3949 15.434 82.0069 14.594C82.6189 13.754 83.5249 13.334 84.7249 13.334C85.3369 13.334 85.8769 13.502 86.3449 13.838C86.8249 14.174 87.1309 14.606 87.2629 15.134H87.3529V9.68H90.0169V23H87.3529V21.416ZM85.6069 21.056C86.1109 21.056 86.5249 20.936 86.8489 20.696C87.1849 20.444 87.3529 20.102 87.3529 19.67V16.88C87.3529 16.448 87.1849 16.112 86.8489 15.872C86.5249 15.62 86.1109 15.494 85.6069 15.494C85.1029 15.494 84.6829 15.674 84.3469 16.034C84.0229 16.382 83.8609 16.856 83.8609 17.456V19.094C83.8609 19.694 84.0229 20.174 84.3469 20.534C84.6829 20.882 85.1029 21.056 85.6069 21.056ZM96.546 10.436H101.28C102.108 10.436 102.864 10.568 103.548 10.832C104.232 11.096 104.814 11.492 105.294 12.02C105.774 12.536 106.146 13.19 106.41 13.982C106.674 14.762 106.806 15.674 106.806 16.718C106.806 17.762 106.674 18.68 106.41 19.472C106.146 20.252 105.774 20.906 105.294 21.434C104.814 21.95 104.232 22.34 103.548 22.604C102.864 22.868 102.108 23 101.28 23H96.546V10.436ZM101.28 20.57C102.096 20.57 102.738 20.342 103.206 19.886C103.674 19.43 103.908 18.698 103.908 17.69V15.746C103.908 14.738 103.674 14.006 103.206 13.55C102.738 13.094 102.096 12.866 101.28 12.866H99.282V20.57H101.28ZM112.607 23.216C111.911 23.216 111.287 23.102 110.735 22.874C110.195 22.646 109.733 22.316 109.349 21.884C108.977 21.452 108.689 20.93 108.485 20.318C108.281 19.706 108.179 19.022 108.179 18.266C108.179 17.51 108.281 16.826 108.485 16.214C108.689 15.602 108.977 15.086 109.349 14.666C109.733 14.234 110.195 13.904 110.735 13.676C111.287 13.448 111.911 13.334 112.607 13.334C113.303 13.334 113.921 13.448 114.461 13.676C115.013 13.904 115.475 14.234 115.847 14.666C116.231 15.086 116.525 15.602 116.729 16.214C116.933 16.826 117.035 17.51 117.035 18.266C117.035 19.022 116.933 19.706 116.729 20.318C116.525 20.93 116.231 21.452 115.847 21.884C115.475 22.316 115.013 22.646 114.461 22.874C113.921 23.102 113.303 23.216 112.607 23.216ZM112.607 21.11C113.135 21.11 113.543 20.948 113.831 20.624C114.119 20.3 114.263 19.838 114.263 19.238V17.312C114.263 16.712 114.119 16.25 113.831 15.926C113.543 15.602 113.135 15.44 112.607 15.44C112.079 15.44 111.671 15.602 111.383 15.926C111.095 16.25 110.951 16.712 110.951 17.312V19.238C110.951 19.838 111.095 20.3 111.383 20.624C111.671 20.948 112.079 21.11 112.607 21.11ZM117.677 13.55H120.251L121.169 17.366L121.817 20.246H121.889L122.645 17.366L123.725 13.55H126.155L127.253 17.366L128.027 20.246H128.099L128.747 17.366L129.665 13.55H132.131L129.521 23H126.731L125.579 19.004L124.913 16.556H124.859L124.211 19.004L123.059 23H120.323L117.677 13.55ZM133.532 23V13.55H136.196V15.152H136.304C136.472 14.66 136.766 14.234 137.186 13.874C137.606 13.514 138.188 13.334 138.932 13.334C139.904 13.334 140.636 13.658 141.128 14.306C141.632 14.954 141.884 15.878 141.884 17.078V23H139.22V17.294C139.22 16.682 139.124 16.232 138.932 15.944C138.74 15.644 138.398 15.494 137.906 15.494C137.69 15.494 137.48 15.524 137.276 15.584C137.072 15.632 136.886 15.716 136.718 15.836C136.562 15.956 136.436 16.106 136.34 16.286C136.244 16.454 136.196 16.652 136.196 16.88V23H133.532ZM146.721 23C145.809 23 145.137 22.778 144.705 22.334C144.285 21.89 144.075 21.248 144.075 20.408V9.68H146.739V20.93H147.927V23H146.721ZM153.178 23.216C152.482 23.216 151.858 23.102 151.306 22.874C150.766 22.646 150.304 22.316 149.92 21.884C149.548 21.452 149.26 20.93 149.056 20.318C148.852 19.706 148.75 19.022 148.75 18.266C148.75 17.51 148.852 16.826 149.056 16.214C149.26 15.602 149.548 15.086 149.92 14.666C150.304 14.234 150.766 13.904 151.306 13.676C151.858 13.448 152.482 13.334 153.178 13.334C153.874 13.334 154.492 13.448 155.032 13.676C155.584 13.904 156.046 14.234 156.418 14.666C156.802 15.086 157.096 15.602 157.3 16.214C157.504 16.826 157.606 17.51 157.606 18.266C157.606 19.022 157.504 19.706 157.3 20.318C157.096 20.93 156.802 21.452 156.418 21.884C156.046 22.316 155.584 22.646 155.032 22.874C154.492 23.102 153.874 23.216 153.178 23.216ZM153.178 21.11C153.706 21.11 154.114 20.948 154.402 20.624C154.69 20.3 154.834 19.838 154.834 19.238V17.312C154.834 16.712 154.69 16.25 154.402 15.926C154.114 15.602 153.706 15.44 153.178 15.44C152.65 15.44 152.242 15.602 151.954 15.926C151.666 16.25 151.522 16.712 151.522 17.312V19.238C151.522 19.838 151.666 20.3 151.954 20.624C152.242 20.948 152.65 21.11 153.178 21.11ZM166.308 23C165.828 23 165.426 22.85 165.102 22.55C164.79 22.25 164.592 21.848 164.508 21.344H164.4C164.256 21.956 163.938 22.424 163.446 22.748C162.954 23.06 162.348 23.216 161.628 23.216C160.68 23.216 159.954 22.964 159.45 22.46C158.946 21.956 158.694 21.29 158.694 20.462C158.694 19.466 159.054 18.728 159.774 18.248C160.506 17.756 161.496 17.51 162.744 17.51H164.238V16.916C164.238 16.46 164.118 16.1 163.878 15.836C163.638 15.56 163.236 15.422 162.672 15.422C162.144 15.422 161.724 15.536 161.412 15.764C161.1 15.992 160.842 16.25 160.638 16.538L159.054 15.134C159.438 14.57 159.918 14.132 160.494 13.82C161.082 13.496 161.874 13.334 162.87 13.334C164.214 13.334 165.222 13.628 165.894 14.216C166.566 14.804 166.902 15.662 166.902 16.79V20.93H167.784V23H166.308ZM162.618 21.362C163.062 21.362 163.44 21.266 163.752 21.074C164.076 20.882 164.238 20.57 164.238 20.138V19.022H162.942C161.898 19.022 161.376 19.376 161.376 20.084V20.354C161.376 20.702 161.484 20.96 161.7 21.128C161.916 21.284 162.222 21.362 162.618 21.362ZM175.188 21.416H175.098C175.026 21.668 174.912 21.908 174.756 22.136C174.6 22.352 174.408 22.544 174.18 22.712C173.964 22.868 173.712 22.988 173.424 23.072C173.148 23.168 172.86 23.216 172.56 23.216C171.36 23.216 170.454 22.796 169.842 21.956C169.23 21.104 168.924 19.874 168.924 18.266C168.924 16.658 169.23 15.434 169.842 14.594C170.454 13.754 171.36 13.334 172.56 13.334C173.172 13.334 173.712 13.502 174.18 13.838C174.66 14.174 174.966 14.606 175.098 15.134H175.188V9.68H177.852V23H175.188V21.416ZM173.442 21.056C173.946 21.056 174.36 20.936 174.684 20.696C175.02 20.444 175.188 20.102 175.188 19.67V16.88C175.188 16.448 175.02 16.112 174.684 15.872C174.36 15.62 173.946 15.494 173.442 15.494C172.938 15.494 172.518 15.674 172.182 16.034C171.858 16.382 171.696 16.856 171.696 17.456V19.094C171.696 19.694 171.858 20.174 172.182 20.534C172.518 20.882 172.938 21.056 173.442 21.056Z" fill="#191826"/>
<path fill-rule="evenodd" clip-rule="evenodd" d="M11.7761 7.12613C11.9432 6.95796 12.192 6.95796 12.3591 7.12613C12.5264 7.29338 12.5264 7.54158 12.3591 7.70876L11.2745 8.79345C11.6239 9.02676 11.9409 9.31227 12.2164 9.63881C12.8761 10.4206 13.297 11.4384 13.3547 12.541L13.3558 12.5561C13.3563 12.5625 13.3567 12.5689 13.357 12.5753C13.3605 12.6504 13.3623 12.7259 13.3623 12.8017H3.3395C3.3395 12.7259 3.34116 12.6504 3.3447 12.5753C3.34497 12.5696 3.34538 12.5639 3.3458 12.5582L3.3458 12.5582C3.34622 12.5525 3.34664 12.5468 3.3469 12.541C3.40477 11.4384 3.82555 10.4207 4.48525 9.63875C4.76081 9.3122 5.07768 9.0267 5.42712 8.79338L4.34263 7.70869C4.17539 7.54158 4.17539 7.29338 4.34263 7.12613C4.50974 6.95796 4.75841 6.95796 4.92565 7.12613L6.04672 8.24353L6.09857 8.29518C6.76328 7.96229 7.50861 7.79605 8.33856 7.79445L8.35084 7.79431H8.35097L8.36312 7.79445C9.19314 7.79605 9.93847 7.96229 10.6032 8.29518L10.655 8.24353L11.7761 7.12613ZM5.63541 10.716C5.63541 11.0618 5.91578 11.3422 6.26161 11.3422C6.60745 11.3422 6.88781 11.0618 6.88781 10.716C6.88781 10.3701 6.60745 10.0898 6.26161 10.0898C5.91578 10.0898 5.63541 10.3701 5.63541 10.716ZM10.4401 11.3422C10.0943 11.3422 9.81394 11.0618 9.81394 10.716C9.81394 10.3701 10.0943 10.0898 10.4401 10.0898C10.786 10.0898 11.0663 10.3701 11.0663 10.716C11.0663 11.0618 10.786 11.3422 10.4401 11.3422ZM1.25174 21.9886C1.92052 21.9886 2.5036 21.4055 2.5036 20.7367V14.8895C2.5036 14.2243 1.92058 13.6381 1.25174 13.6381C0.583022 13.6381 0 14.2243 0 14.8895V20.7367C0 21.4054 0.583022 21.9886 1.25174 21.9886ZM11.6905 25.7481C11.6905 26.4168 11.1073 26.9999 10.4386 26.9999C9.76989 26.9999 9.18673 26.4168 9.1868 25.7481V22.8245H7.51495V25.7481C7.51495 26.4168 6.93186 27 6.26321 27C5.59437 27 5.01135 26.4168 5.01135 25.7481V22.8245H4.17539C3.67385 22.8245 3.3395 22.4901 3.3395 21.9886V13.6381H13.3623V21.9885C13.3623 22.49 13.028 22.8244 12.5264 22.8244H11.6905V25.7481ZM16.7018 20.7367C16.7018 21.4055 16.1188 21.9886 15.4501 21.9886C14.7812 21.9886 14.1982 21.4054 14.1982 20.7367V14.8895C14.1982 14.2243 14.7813 13.6381 15.4501 13.6381C16.1188 13.6381 16.7018 14.2243 16.7018 14.8895V20.7367Z" fill="#191826"/>
</g>
<defs>
<clipPath id="clip0_0_41">
<rect width="178.5" height="32" fill="white"/>
</clipPath>
</defs>
</svg>
