<svg width="142" height="32" viewBox="0 0 142 32" fill="none" xmlns="http://www.w3.org/2000/svg">
<g clip-path="url(#clip0_0_34)">
<path d="M27.7554 12.542C27.2154 12.542 26.8194 12.422 26.5674 12.182C26.3274 11.93 26.2074 11.612 26.2074 11.228V10.832C26.2074 10.448 26.3274 10.136 26.5674 9.896C26.8194 9.644 27.2154 9.518 27.7554 9.518C28.2954 9.518 28.6854 9.644 28.9254 9.896C29.1774 10.136 29.3034 10.448 29.3034 10.832V11.228C29.3034 11.612 29.1774 11.93 28.9254 12.182C28.6854 12.422 28.2954 12.542 27.7554 12.542ZM26.4234 13.55H29.0874V23H26.4234V13.55ZM36.5778 23.216C35.7498 23.216 34.9938 23.078 34.3098 22.802C33.6258 22.526 33.0438 22.118 32.5638 21.578C32.0838 21.026 31.7118 20.348 31.4478 19.544C31.1838 18.728 31.0518 17.786 31.0518 16.718C31.0518 15.65 31.1838 14.714 31.4478 13.91C31.7118 13.094 32.0838 12.416 32.5638 11.876C33.0438 11.324 33.6258 10.91 34.3098 10.634C34.9938 10.358 35.7498 10.22 36.5778 10.22C37.4058 10.22 38.1618 10.358 38.8458 10.634C39.5298 10.91 40.1118 11.324 40.5918 11.876C41.0718 12.416 41.4438 13.094 41.7078 13.91C41.9718 14.714 42.1038 15.65 42.1038 16.718C42.1038 17.786 41.9718 18.728 41.7078 19.544C41.4438 20.348 41.0718 21.026 40.5918 21.578C40.1118 22.118 39.5298 22.526 38.8458 22.802C38.1618 23.078 37.4058 23.216 36.5778 23.216ZM36.5778 20.786C37.4058 20.786 38.0478 20.516 38.5038 19.976C38.9718 19.436 39.2058 18.662 39.2058 17.654V15.782C39.2058 14.774 38.9718 14 38.5038 13.46C38.0478 12.92 37.4058 12.65 36.5778 12.65C35.7498 12.65 35.1018 12.92 34.6338 13.46C34.1778 14 33.9498 14.774 33.9498 15.782V17.654C33.9498 18.662 34.1778 19.436 34.6338 19.976C35.1018 20.516 35.7498 20.786 36.5778 20.786ZM48.2051 23.216C47.1011 23.216 46.1651 23.03 45.3971 22.658C44.6291 22.274 43.9751 21.782 43.4351 21.182L45.2351 19.364C46.0871 20.324 47.1371 20.804 48.3851 20.804C49.0571 20.804 49.5551 20.666 49.8791 20.39C50.2031 20.114 50.3651 19.748 50.3651 19.292C50.3651 18.944 50.2691 18.656 50.0771 18.428C49.8851 18.188 49.4951 18.026 48.9071 17.942L47.6651 17.78C46.3331 17.612 45.3551 17.21 44.7311 16.574C44.1191 15.938 43.8131 15.092 43.8131 14.036C43.8131 13.472 43.9211 12.956 44.1371 12.488C44.3531 12.02 44.6591 11.618 45.0551 11.282C45.4631 10.946 45.9551 10.688 46.5311 10.508C47.1191 10.316 47.7851 10.22 48.5291 10.22C49.4771 10.22 50.3111 10.37 51.0311 10.67C51.7511 10.97 52.3691 11.408 52.8851 11.984L51.0671 13.82C50.7671 13.472 50.4011 13.19 49.9691 12.974C49.5491 12.746 49.0151 12.632 48.3671 12.632C47.7551 12.632 47.2991 12.74 46.9991 12.956C46.6991 13.172 46.5491 13.472 46.5491 13.856C46.5491 14.288 46.6631 14.6 46.8911 14.792C47.1311 14.984 47.5151 15.122 48.0431 15.206L49.2851 15.404C50.5811 15.608 51.5411 16.01 52.1651 16.61C52.7891 17.198 53.1011 18.038 53.1011 19.13C53.1011 19.73 52.9931 20.282 52.7771 20.786C52.5611 21.29 52.2431 21.722 51.8231 22.082C51.4151 22.442 50.9051 22.724 50.2931 22.928C49.6811 23.12 48.9851 23.216 48.2051 23.216ZM59.2634 10.436H63.9974C64.8254 10.436 65.5814 10.568 66.2654 10.832C66.9494 11.096 67.5314 11.492 68.0114 12.02C68.4914 12.536 68.8634 13.19 69.1274 13.982C69.3914 14.762 69.5234 15.674 69.5234 16.718C69.5234 17.762 69.3914 18.68 69.1274 19.472C68.8634 20.252 68.4914 20.906 68.0114 21.434C67.5314 21.95 66.9494 22.34 66.2654 22.604C65.5814 22.868 64.8254 23 63.9974 23H59.2634V10.436ZM63.9974 20.57C64.8134 20.57 65.4554 20.342 65.9234 19.886C66.3914 19.43 66.6254 18.698 66.6254 17.69V15.746C66.6254 14.738 66.3914 14.006 65.9234 13.55C65.4554 13.094 64.8134 12.866 63.9974 12.866H61.9994V20.57H63.9974ZM75.3242 23.216C74.6282 23.216 74.0042 23.102 73.4522 22.874C72.9122 22.646 72.4502 22.316 72.0662 21.884C71.6942 21.452 71.4062 20.93 71.2022 20.318C70.9982 19.706 70.8962 19.022 70.8962 18.266C70.8962 17.51 70.9982 16.826 71.2022 16.214C71.4062 15.602 71.6942 15.086 72.0662 14.666C72.4502 14.234 72.9122 13.904 73.4522 13.676C74.0042 13.448 74.6282 13.334 75.3242 13.334C76.0202 13.334 76.6382 13.448 77.1782 13.676C77.7302 13.904 78.1922 14.234 78.5642 14.666C78.9482 15.086 79.2422 15.602 79.4462 16.214C79.6502 16.826 79.7522 17.51 79.7522 18.266C79.7522 19.022 79.6502 19.706 79.4462 20.318C79.2422 20.93 78.9482 21.452 78.5642 21.884C78.1922 22.316 77.7302 22.646 77.1782 22.874C76.6382 23.102 76.0202 23.216 75.3242 23.216ZM75.3242 21.11C75.8522 21.11 76.2602 20.948 76.5482 20.624C76.8362 20.3 76.9802 19.838 76.9802 19.238V17.312C76.9802 16.712 76.8362 16.25 76.5482 15.926C76.2602 15.602 75.8522 15.44 75.3242 15.44C74.7962 15.44 74.3882 15.602 74.1002 15.926C73.8122 16.25 73.6682 16.712 73.6682 17.312V19.238C73.6682 19.838 73.8122 20.3 74.1002 20.624C74.3882 20.948 74.7962 21.11 75.3242 21.11ZM80.3946 13.55H82.9686L83.8866 17.366L84.5346 20.246H84.6066L85.3626 17.366L86.4426 13.55H88.8726L89.9706 17.366L90.7446 20.246H90.8166L91.4646 17.366L92.3826 13.55H94.8486L92.2386 23H89.4486L88.2966 19.004L87.6306 16.556H87.5766L86.9286 19.004L85.7766 23H83.0406L80.3946 13.55ZM96.2493 23V13.55H98.9133V15.152H99.0213C99.1893 14.66 99.4833 14.234 99.9033 13.874C100.323 13.514 100.905 13.334 101.649 13.334C102.621 13.334 103.353 13.658 103.845 14.306C104.349 14.954 104.601 15.878 104.601 17.078V23H101.937V17.294C101.937 16.682 101.841 16.232 101.649 15.944C101.457 15.644 101.115 15.494 100.623 15.494C100.407 15.494 100.197 15.524 99.9933 15.584C99.7893 15.632 99.6033 15.716 99.4353 15.836C99.2793 15.956 99.1533 16.106 99.0573 16.286C98.9613 16.454 98.9133 16.652 98.9133 16.88V23H96.2493ZM109.438 23C108.526 23 107.854 22.778 107.422 22.334C107.002 21.89 106.792 21.248 106.792 20.408V9.68H109.456V20.93H110.644V23H109.438ZM115.895 23.216C115.199 23.216 114.575 23.102 114.023 22.874C113.483 22.646 113.021 22.316 112.637 21.884C112.265 21.452 111.977 20.93 111.773 20.318C111.569 19.706 111.467 19.022 111.467 18.266C111.467 17.51 111.569 16.826 111.773 16.214C111.977 15.602 112.265 15.086 112.637 14.666C113.021 14.234 113.483 13.904 114.023 13.676C114.575 13.448 115.199 13.334 115.895 13.334C116.591 13.334 117.209 13.448 117.749 13.676C118.301 13.904 118.763 14.234 119.135 14.666C119.519 15.086 119.813 15.602 120.017 16.214C120.221 16.826 120.323 17.51 120.323 18.266C120.323 19.022 120.221 19.706 120.017 20.318C119.813 20.93 119.519 21.452 119.135 21.884C118.763 22.316 118.301 22.646 117.749 22.874C117.209 23.102 116.591 23.216 115.895 23.216ZM115.895 21.11C116.423 21.11 116.831 20.948 117.119 20.624C117.407 20.3 117.551 19.838 117.551 19.238V17.312C117.551 16.712 117.407 16.25 117.119 15.926C116.831 15.602 116.423 15.44 115.895 15.44C115.367 15.44 114.959 15.602 114.671 15.926C114.383 16.25 114.239 16.712 114.239 17.312V19.238C114.239 19.838 114.383 20.3 114.671 20.624C114.959 20.948 115.367 21.11 115.895 21.11ZM129.025 23C128.545 23 128.143 22.85 127.819 22.55C127.507 22.25 127.309 21.848 127.225 21.344H127.117C126.973 21.956 126.655 22.424 126.163 22.748C125.671 23.06 125.065 23.216 124.345 23.216C123.397 23.216 122.671 22.964 122.167 22.46C121.663 21.956 121.411 21.29 121.411 20.462C121.411 19.466 121.771 18.728 122.491 18.248C123.223 17.756 124.213 17.51 125.461 17.51H126.955V16.916C126.955 16.46 126.835 16.1 126.595 15.836C126.355 15.56 125.953 15.422 125.389 15.422C124.861 15.422 124.441 15.536 124.129 15.764C123.817 15.992 123.559 16.25 123.355 16.538L121.771 15.134C122.155 14.57 122.635 14.132 123.211 13.82C123.799 13.496 124.591 13.334 125.587 13.334C126.931 13.334 127.939 13.628 128.611 14.216C129.283 14.804 129.619 15.662 129.619 16.79V20.93H130.501V23H129.025ZM125.335 21.362C125.779 21.362 126.157 21.266 126.469 21.074C126.793 20.882 126.955 20.57 126.955 20.138V19.022H125.659C124.615 19.022 124.093 19.376 124.093 20.084V20.354C124.093 20.702 124.201 20.96 124.417 21.128C124.633 21.284 124.939 21.362 125.335 21.362ZM137.905 21.416H137.815C137.743 21.668 137.629 21.908 137.473 22.136C137.317 22.352 137.125 22.544 136.897 22.712C136.681 22.868 136.429 22.988 136.141 23.072C135.865 23.168 135.577 23.216 135.277 23.216C134.077 23.216 133.171 22.796 132.559 21.956C131.947 21.104 131.641 19.874 131.641 18.266C131.641 16.658 131.947 15.434 132.559 14.594C133.171 13.754 134.077 13.334 135.277 13.334C135.889 13.334 136.429 13.502 136.897 13.838C137.377 14.174 137.683 14.606 137.815 15.134H137.905V9.68H140.569V23H137.905V21.416ZM136.159 21.056C136.663 21.056 137.077 20.936 137.401 20.696C137.737 20.444 137.905 20.102 137.905 19.67V16.88C137.905 16.448 137.737 16.112 137.401 15.872C137.077 15.62 136.663 15.494 136.159 15.494C135.655 15.494 135.235 15.674 134.899 16.034C134.575 16.382 134.413 16.856 134.413 17.456V19.094C134.413 19.694 134.575 20.174 134.899 20.534C135.235 20.882 135.655 21.056 136.159 21.056Z" fill="#FCFAF9"/>
<path fill-rule="evenodd" clip-rule="evenodd" d="M9.25197 7.64499C9.97821 6.75624 11.2245 6.07375 12.2907 6C12.4694 7.21499 11.9757 8.40498 11.3232 9.24623C10.6257 10.15 9.42197 10.8487 8.25698 10.8125C8.04448 9.64873 8.58947 8.45123 9.25197 7.64499ZM12.6832 10.6812C14.0419 10.6812 15.4807 11.4262 16.5044 12.71C13.1482 14.5612 13.6919 19.3837 17.0832 20.6749C16.6169 21.7149 16.3932 22.1786 15.7919 23.0999C14.9532 24.3849 13.7719 25.9861 12.3057 25.9974C11.703 26.0037 11.3076 25.8213 10.8812 25.6246C10.3871 25.3966 9.85137 25.1495 8.90322 25.1549C7.96028 25.1595 7.41601 25.4036 6.9151 25.6283C6.47775 25.8244 6.07346 26.0057 5.46574 25.9999C4.00075 25.9874 2.88076 24.5424 2.04202 23.2574C-0.301717 19.6662 -0.549215 15.4499 0.897025 13.2075C1.92577 11.615 3.54826 10.6837 5.072 10.6837C5.8841 10.6837 6.53862 10.9184 7.16234 11.142C7.73002 11.3456 8.2722 11.54 8.88447 11.54C9.45102 11.54 9.91682 11.3625 10.4249 11.1689C11.0345 10.9367 11.7049 10.6812 12.6832 10.6812Z" fill="#FCFAF9"/>
</g>
<defs>
<clipPath id="clip0_0_34">
<rect width="142" height="32" fill="white"/>
</clipPath>
</defs>
</svg>
